<svg width="612" height="404" viewBox="0 0 612 404" fill="none" xmlns="http://www.w3.org/2000/svg">
<path d="M148.253 245.689C159.46 237.907 201.156 223.889 220.604 217.853H242.447C255.411 221.066 284.535 228.791 297.326 233.976C310.117 239.161 333.436 269.866 342.799 284.126L332.611 303.633C306.684 329.215 327.574 351.8 341.402 360.154C320.661 360.154 311.73 352.376 309.858 348.487C311.932 360.241 313.603 389.106 314.179 402.07H161.641V378.51H103.462C98.1005 319.848 134.244 255.417 148.253 245.689Z" fill="url(#paint0_linear)"/>
<ellipse cx="233.172" cy="236.361" rx="25.9725" ry="18.5082" fill="#CF0606"/>
<path d="M213.89 234.45C217.262 215.065 216.074 197.128 215.547 190.939C216.284 185.145 246.944 195.997 261.692 201.792C253.37 206.006 251.114 227.075 251.026 237.083C251.289 240.376 249.235 247.355 238.911 248.935C221.634 250.937 215.032 240.112 213.89 234.45Z" fill="url(#paint1_linear)"/>
<mask id="mask0" mask-type="alpha" maskUnits="userSpaceOnUse" x="213" y="189" width="49" height="61">
<path d="M213.89 234.45C217.262 215.065 216.074 197.128 215.547 190.939C216.284 185.145 246.944 195.997 261.692 201.792C253.37 206.006 251.114 227.075 251.026 237.083C251.289 240.376 249.235 247.355 238.911 248.935C221.634 250.937 215.032 240.112 213.89 234.45Z" fill="#BABABA"/>
</mask>
<g mask="url(#mask0)">
<path opacity="0.1" d="M256.589 221.902C235.826 218.662 220.433 200.408 215.331 191.686C227.182 189.241 253.828 185.819 265.608 191.686C277.389 197.553 264.504 214.275 256.589 221.902Z" fill="black"/>
</g>
<path d="M250.264 205.341C284.366 203.858 285.34 157.222 281.565 134.089C219.951 81.8648 195.211 122.9 190.544 149.945C196.241 169.028 216.161 206.824 250.264 205.341Z" fill="url(#paint2_linear)"/>
<path d="M206.245 87.4749C196.434 84.3823 175.98 82.836 172.653 101.392C172.653 113.389 201.606 110.349 206.245 87.4749Z" fill="#30235B"/>
<path d="M218.058 149.098L231.953 161.032L230.445 167.992L217.485 156.618L218.058 149.098Z" fill="#111111"/>
<path d="M203.929 159.83C215.791 169.879 216.56 185.571 215.461 192.161C211.617 191.131 200.881 184.459 188.69 166.008C169.25 126.304 192.671 96.6093 206.812 86.7246C244.703 64.6901 295.362 98.8745 286.507 125.028C277.652 151.181 235.299 145.14 219.58 135.118C222.874 145.003 219.854 154.75 217.932 158.388C210.519 141.09 189.102 147.268 203.929 159.83Z" fill="#30235B"/>
<path d="M229.321 81.6219C254.553 74.3745 269.92 87.4378 274.45 94.8754C269.361 92.1352 255.258 88.299 239.555 94.8754C214.726 106.283 209.301 130.609 209.693 141.346L193.252 140.172V134.132C194.762 119.649 204.089 88.8694 229.321 81.6219Z" fill="#388A35"/>
<ellipse cx="199.985" cy="156.067" rx="19.2976" ry="23.6088" fill="#682C90"/>
<ellipse cx="199.985" cy="156.067" rx="19.2976" ry="23.6088" fill="#388A35"/>
<ellipse cx="199.985" cy="156.067" rx="9.21133" ry="11.2692" fill="white"/>
<path opacity="0.5" d="M284.303 152.464C277.15 150.254 269.447 154.967 266.489 157.6C261.111 162.735 269.266 175.792 278.695 169.777C286.238 164.965 285.577 156.231 284.303 152.464Z" fill="#E6FCFF"/>
<path fill-rule="evenodd" clip-rule="evenodd" d="M263.458 156.05C273.804 146.493 283.615 148.126 287.228 150.138C289.318 155.673 287.228 171.849 275.69 173.283C266.459 174.43 263.296 167.294 262.868 163.582C261.114 162.165 259.948 163.387 259.585 164.174C259.888 174.49 251.596 181.467 242.696 179.849C235.577 178.555 232.478 171.441 231.818 168.045H230.346V162.01C239.617 152.932 252.425 155.157 257.67 157.404C259.049 156.321 262.104 156.05 263.458 156.05ZM283.76 153.112C276.607 150.901 270.072 154.689 267.114 157.322C261.736 162.457 268.8 175.038 278.669 169.777C284.579 166.627 285.033 156.878 283.76 153.112ZM243.315 159.843C247.22 158.572 255.185 157.722 255.795 164.489C256.558 172.948 248.861 179.188 242.136 175.86C237.266 173.45 235.272 168.51 235.272 165.39C235.272 162.894 240.634 160.652 243.315 159.843Z" fill="#111111"/>
<path opacity="0.5" d="M255.821 164.489C255.211 157.722 247.246 158.572 243.34 159.844C240.66 160.652 235.298 162.894 235.298 165.39C235.298 168.51 237.292 173.45 242.162 175.86C248.887 179.188 256.583 172.948 255.821 164.489Z" fill="#E6FCFF"/>
<path d="M103.413 378.585C109.412 405.321 145.039 405.375 162.102 402.061L293.628 383.058C295.323 384.531 299.384 388.413 302.061 392.165C304.738 395.916 307.192 393.279 308.084 391.491C311.939 395.668 314.777 393.68 315.714 392.165C319.034 396.344 321.827 394.885 322.809 393.633C327.413 397.06 328.576 394.082 328.581 392.165C322.299 378.862 311.029 365.529 306.18 360.525L273.385 363.528L166.83 352.664C146.614 338.481 95.9136 345.165 103.413 378.585Z" fill="url(#paint3_linear)"/>
<path d="M358.251 338.133C352.31 357.319 344.12 360.671 340.767 359.949C305.481 336.337 320.633 312.141 332.62 302.995L363.865 238.664C359.341 235.126 354.301 224.059 354.818 217.08C355.232 211.497 359.04 211.31 360.892 211.915C361.409 206.13 365.588 206.314 367.613 207.129C369.371 200.822 374.463 202.175 376.789 203.639C377.099 194.954 383.122 196.144 386.094 197.824L391.312 211.915C393.444 212.211 398.388 212.895 401.111 213.267C404.515 213.731 408.848 214.35 406.681 219.146C404.949 222.984 396.16 236.115 391.982 242.201C383.214 266.184 364.193 318.946 358.251 338.133Z" fill="url(#paint4_linear)"/>
<path d="M268.31 395.167H337.116C337.116 398.979 334.025 402.07 330.213 402.07H275.212C271.4 402.07 268.31 398.979 268.31 395.167Z" fill="#B4B4B4"/>
<path d="M359.053 310.218C359.534 309.064 360.662 308.313 361.912 308.313H478.112C480.322 308.313 481.821 310.561 480.971 312.601L444.466 400.164C443.985 401.318 442.858 402.07 441.608 402.07H325.407C323.197 402.07 321.698 399.821 322.549 397.781L359.053 310.218Z" fill="url(#paint5_linear)"/>
<path d="M166.87 352.632L169.956 328.343" stroke="#30235B" stroke-width="0.619401"/>
<path d="M309.764 348.631C309.301 345.78 308.514 338.889 309.069 334.134" stroke="#30235B" stroke-width="0.619401"/>
<path d="M308.925 339.451L306.271 334.072" stroke="#30235B" stroke-width="0.619401"/>
<path d="M307.986 391.269L299.368 380.392" stroke="#30235B" stroke-width="0.619401"/>
<path d="M315.614 391.807L302.164 374.352" stroke="#30235B" stroke-width="0.619401"/>
<path d="M322.685 393.407L305.967 369.319" stroke="#30235B" stroke-width="0.619401"/>
<path d="M360.888 212.019C361.349 214.415 362.851 220.078 365.177 223.566" stroke="#30235B" stroke-width="0.619401"/>
<path d="M376.818 203.69C377.522 206.162 379.356 211.737 381.056 214.262" stroke="#30235B" stroke-width="0.619401"/>
<path d="M367.52 207.282C368.349 209.973 370.409 215.889 372.012 218.026" stroke="#30235B" stroke-width="0.619401"/>
<path d="M391.246 211.906L393.81 219.408" stroke="#30235B" stroke-width="0.619401"/>
<ellipse cx="405.978" cy="357.423" rx="7.86131" ry="11.3813" transform="rotate(19.8998 405.978 357.423)" fill="#682C90"/>
<rect x="609.137" y="282.004" width="126.405" height="10.3543" transform="rotate(117.371 609.137 282.004)" fill="#E0E0E0"/>
<rect x="519.833" y="386.447" width="58.4432" height="15.6235" rx="3.09701" fill="#30235B"/>
<rect x="602.449" y="283.019" width="67.8967" height="10.3543" transform="rotate(-139.766 602.449 283.019)" fill="#E0E0E0"/>
<rect x="551.719" y="234.653" width="20.0325" height="3.56661" transform="rotate(162.128 551.719 234.653)" fill="#E0E0E0"/>
<circle cx="604.767" cy="278.849" r="7.23339" fill="#30235B"/>
<path d="M547.196 229.427L557.329 231.308L550.633 239.144L547.196 229.427Z" fill="#30235B"/>
<path d="M515.634 226.05C517.968 220.187 524.613 217.326 530.476 219.66C536.339 221.994 539.2 228.639 536.866 234.503L530.412 250.715L509.18 242.262L515.634 226.05Z" fill="#30235B"/>
<path d="M522.366 242.591C498.803 233.339 483.125 254.065 477.59 265.042C493.951 288.368 523.921 290.764 537.503 289.59C542.276 277.779 545.93 251.843 522.366 242.591Z" fill="#30235B"/>
<path d="M45.9919 330.441C30.8299 339.722 26.0589 331.258 25.5686 325.867C25.5686 318.024 25.5686 311.489 15.2755 299.888C-9.55896 272.44 -1.7165 228.653 32.5943 225.875C66.9051 223.098 56.9386 244.828 44.8481 258.879C32.7816 272.902 40.4065 277.161 58.4651 287.248L58.5725 287.308C82.0999 301.522 62.4937 314.266 50.8934 316.554C39.2931 318.841 49.2595 325.867 45.9919 330.441Z" fill="url(#paint6_linear)"/>
<path d="M196.089 178.483C190.716 177.355 180.059 170.308 181.021 154.118" stroke="#388A35" stroke-width="0.949425"/>
<path d="M271.78 91.6571C268.855 87.3154 261.945 80.8983 248.015 80.2402" stroke="#30235B" stroke-width="0.949425"/>
<path d="M80.3817 369.499C81.6643 354.806 68.0855 351.269 59.7797 351.27C58.7811 351.27 57.9288 351.954 57.6393 352.909C57.166 354.471 58.3638 356.046 59.9912 356.169C67.3256 356.721 77.2155 359.841 75.3912 369.499C73.6208 378.871 65.4975 380.638 59.7464 380.24C58.1618 380.131 56.6766 381.311 56.6766 382.899C56.6766 384.082 57.5134 385.11 58.6903 385.233C66.4491 386.047 79.1255 383.888 80.3817 369.499Z" fill="url(#paint7_linear)"/>
<path d="M59.0796 346.094V398.973C59.0796 400.683 57.693 402.07 55.9826 402.07H14.2349C12.5245 402.07 11.1379 400.683 11.1379 398.973L11.138 346.094C11.138 344.384 12.5245 342.997 14.235 342.997H55.9826C57.693 342.997 59.0796 344.384 59.0796 346.094Z" fill="url(#paint8_linear)"/>
<path d="M332.578 302.938L342.169 283.272" stroke="#30235B" stroke-width="0.949425"/>
<path d="M252.429 361.283C249.241 372.043 251.101 384.199 252.429 388.932L261.294 387.675C259.446 373.574 260.524 364.857 261.294 362.262L252.429 361.283Z" fill="#30235B"/>
<rect x="248.917" y="356.674" width="16.7668" height="4.34698" rx="2.17349" transform="rotate(6.01694 248.917 356.674)" fill="url(#paint9_linear)"/>
<rect opacity="0.5" x="313.949" y="1.94942" width="48.1012" height="48.1012" rx="2.54344" stroke="#F0F0F0" stroke-width="1.89885"/>
<rect opacity="0.5" x="323.415" y="8.05859" width="28.0918" height="33.1866" fill="#682C90"/>
<rect opacity="0.5" x="133.949" y="1.94942" width="48.1012" height="48.1012" rx="3.7977" stroke="#F0F0F0" stroke-width="1.89885"/>
<path d="M168.081 26.1066V24.5141C167.971 22.9381 167.587 21.4049 166.952 20.0094L166.569 19.2905L166.236 18.6651C165.303 17.1457 164.074 15.9081 162.65 15.0543C161.227 14.2006 159.65 13.7554 158.051 13.7554C156.451 13.7554 154.875 14.2006 153.451 15.0543C152.028 15.9081 150.799 17.1457 149.865 18.6651L149.532 19.2905L149.14 20.0094C148.505 21.4056 148.121 22.9384 148.01 24.5141H147.919V26.1066C147.99 27.8371 148.386 29.5282 149.079 31.0594L149.461 31.7783L149.804 32.4028C150.703 33.8701 151.877 35.0764 153.237 35.9291C154.597 36.7817 156.106 37.2578 157.648 37.3207C157.765 37.333 157.882 37.333 158 37.3207C158.114 37.333 158.229 37.333 158.343 37.3207C159.88 37.26 161.385 36.7884 162.743 35.9422C164.1 35.096 165.274 33.8976 166.175 32.4387L166.508 31.8141L166.901 31.0943C167.608 29.5558 168.011 27.8514 168.081 26.1066ZM165.711 30.3396H165.59C165.227 30.1396 164.855 29.9509 164.472 29.7849H164.411C164.048 29.6321 163.665 29.4905 163.282 29.3604H163.152C163.147 29.3216 163.147 29.2822 163.152 29.2434C163.212 28.7953 163.262 28.3471 163.302 27.8868V27.6632C163.302 27.2622 163.323 26.8688 163.363 26.4839V26.283H166.7C166.61 27.7044 166.263 29.0872 165.681 30.3396H165.712H165.711ZM161.417 30.9056C161.417 31.0358 161.347 31.1651 161.306 31.283C161.266 31.4009 161.306 31.4009 161.306 31.4604C161.306 31.5198 161.195 31.8141 161.135 31.9792C161.141 32.0183 161.141 32.0581 161.135 32.0971L161.004 32.4858C161.004 32.5453 161.004 32.5924 160.934 32.6509L160.813 32.9575L160.732 33.1349L160.611 33.3943L160.52 33.5594L160.399 33.7953L160.309 33.9604L160.177 34.1726C160.147 34.2264 160.113 34.2773 160.077 34.3255L159.946 34.5028L159.845 34.6443L159.714 34.8094C159.678 34.8457 159.644 34.8852 159.613 34.9273L159.472 35.0688L159.36 35.1745L159.21 35.2924L159.119 35.3755L158.948 35.4811H158.776V29.9387H159.34L160.087 30.0217H160.399L161.065 30.1396L161.397 30.1981L161.609 30.2575L161.548 30.517C161.418 30.7528 161.407 30.8349 161.387 30.9056H161.418H161.417ZM156.175 34.5028L155.984 34.3255C155.953 34.272 155.919 34.2207 155.883 34.1717L155.762 33.9594C155.723 33.9094 155.689 33.8539 155.661 33.7943L155.54 33.5707L155.449 33.3821C155.408 33.3018 155.372 33.219 155.339 33.1339L155.248 32.9453L155.137 32.6622L155.056 32.4736L154.976 32.1198C154.955 32.0749 154.938 32.0274 154.925 31.9783C154.865 31.808 154.811 31.6349 154.764 31.4594L154.704 31.2594C154.704 31.1415 154.644 31.0358 154.613 30.9056L154.552 30.6575L154.492 30.4104L154.704 30.3509L155.027 30.2453L155.692 30.1273H156.004C156.26 30.1273 156.512 30.1038 156.76 30.0566H157.315V35.599H157.163L156.972 35.4811L156.881 35.399L156.73 35.2688C156.692 35.2441 156.658 35.2122 156.629 35.1745L156.488 34.9622L156.377 34.8443L156.246 34.6792L156.176 34.5019L156.175 34.5028ZM154.613 20.1038L154.765 19.6321V19.5377C154.765 19.3613 154.875 19.1962 154.935 19.0311L154.976 18.783L155.137 18.4528L155.228 18.2641L155.349 17.9698L155.44 17.7811L155.56 17.5217C155.56 17.4509 155.631 17.3915 155.661 17.333C155.702 17.2556 155.745 17.1802 155.793 17.1085C155.823 17.0471 155.856 16.9877 155.894 16.9321L155.984 16.7198L156.095 16.566L156.226 16.3896L156.337 16.2481L156.528 16.0943L156.64 15.9764L156.781 15.8471L156.902 15.7528L157.052 15.6462L157.164 15.5754L157.315 15.5047V21.0594H156.781C156.519 21.0594 156.266 21.0594 156.015 20.9887H155.712L155.027 20.8113L154.704 20.7405H154.482C154.502 20.6283 154.53 20.5179 154.563 20.4104C154.571 20.3066 154.588 20.2038 154.613 20.1038ZM159.855 16.566L159.956 16.7198L160.097 16.9198L160.198 17.0971C160.238 17.1745 160.281 17.2481 160.329 17.3207L160.419 17.5094C160.419 17.5924 160.51 17.6745 160.551 17.7688L160.641 17.9575L160.762 18.2528C160.762 18.2528 160.762 18.3821 160.843 18.4415C160.923 18.5009 160.923 18.6773 160.974 18.7953L161.035 18.9717C161.095 19.149 161.156 19.3254 161.206 19.5141L161.357 20.0802C161.378 20.149 161.395 20.2207 161.407 20.2924C161.407 20.4104 161.468 20.5283 161.488 20.6462H161.277L160.954 20.8113L160.278 20.9292H159.986C159.724 20.9292 159.472 20.9887 159.21 21L159.008 21.0471H158.676V15.5047L158.827 15.5754L158.938 15.6462L159.089 15.7528L159.21 15.8471L159.361 15.9764L159.472 16.0943L159.613 16.2481L159.724 16.3896L159.855 16.566ZM161.196 28.7245L160.43 28.5943H160.157C159.845 28.5943 159.532 28.5122 159.21 28.5H158.665V26.1415H162.032C162.037 26.2047 162.037 26.2679 162.032 26.3302C162.032 26.6604 162.032 27.0028 161.981 27.333V27.5924C161.981 27.9934 161.901 28.4056 161.84 28.7717C161.845 28.7949 161.845 28.8192 161.84 28.8424H161.598L161.195 28.7236L161.196 28.7245ZM156.77 28.4651C156.448 28.4651 156.135 28.4651 155.823 28.5594H155.55L154.784 28.6887L154.442 28.7594H154.2V28.6773C154.139 28.2877 154.098 27.8754 154.069 27.4981V27.2264C154.069 26.8962 154.069 26.566 154.018 26.2358V26.0471H157.345V28.4056H156.911L156.77 28.4651ZM153.968 24.4198L154.028 23.4764C154.033 23.4332 154.033 23.3894 154.028 23.3462C154.028 22.9934 154.098 22.6387 154.149 22.2971V22.2264H154.371L154.774 22.3085L155.409 22.4151L155.843 22.4858H157.264V24.349H153.968V24.4198ZM159.441 22.5915H160.056L160.5 22.5207L161.125 22.4151L161.528 22.333H161.75C161.755 22.356 161.755 22.3798 161.75 22.4028C161.801 22.7453 161.841 23.099 161.871 23.4528V23.5585C161.871 23.8773 161.871 24.2075 161.931 24.5377V24.6198H158.665V22.6509H159.018L159.441 22.5915ZM163.323 24.5141V24.349C163.323 23.9481 163.272 23.5349 163.242 23.1698C163.242 22.7688 163.151 22.3679 163.101 21.9905C163.096 21.9593 163.096 21.9274 163.101 21.8962H163.232C163.615 21.7707 163.988 21.6292 164.351 21.4717H164.431C164.815 21.3066 165.188 21.1179 165.55 20.9179L165.671 20.8585C166.215 22.0312 166.558 23.3174 166.679 24.6443L163.323 24.5141ZM164.956 19.3726C164.643 19.5377 164.321 19.6915 163.948 19.833L163.756 19.9038C163.484 20.0217 163.211 20.1273 162.929 20.2217H162.819C162.768 19.9858 162.707 19.75 162.648 19.5141L162.587 19.3019L162.456 18.8302L162.375 18.5943C162.324 18.4528 162.284 18.3 162.223 18.1585C162.204 18.0895 162.181 18.0223 162.153 17.9575C162.083 17.7811 162.023 17.6038 161.942 17.4273V17.3566C161.861 17.1679 161.781 16.9792 161.69 16.8019L161.609 16.649C161.548 16.5188 161.477 16.4009 161.418 16.283L161.317 16.1179L161.226 15.9651C162.715 16.6743 164.007 17.8541 164.956 19.3726ZM154.774 16.0943L154.694 16.2358C154.664 16.2976 154.63 16.3569 154.593 16.4132C154.532 16.5188 154.472 16.649 154.402 16.767L154.321 16.9198L154.069 17.4745C153.988 17.6509 153.917 17.8396 153.847 18.0283C153.777 18.217 153.796 18.1585 153.777 18.2292L153.625 18.6773L153.555 18.9009C153.504 19.0547 153.464 19.2198 153.413 19.3726L153.332 19.6321C153.272 19.8566 153.222 20.0924 153.161 20.3283H153.05L152.223 20.0217L152.042 19.8679L151.094 19.4198H151.034C151.998 17.9327 153.291 16.7827 154.774 16.0943ZM150.298 20.8113H150.419C150.782 21 151.156 21.1887 151.539 21.3538H151.619C151.982 21.5075 152.355 21.649 152.728 21.7783H152.869V21.8726C152.819 22.2613 152.769 22.6622 152.738 23.0519C152.738 23.4405 152.677 23.8415 152.668 24.2311V24.349H149.331C149.46 23.0868 149.788 21.8632 150.298 20.7405V20.8113ZM152.606 26.1773C152.602 26.2439 152.602 26.3108 152.606 26.3773C152.606 26.7858 152.627 27.1792 152.668 27.5566C152.662 27.6321 152.662 27.7066 152.668 27.7802C152.668 28.2405 152.758 28.6887 152.819 29.1368V29.2547H152.687C152.304 29.3802 151.931 29.5217 151.569 29.6792H151.498C151.115 29.8443 150.752 30.033 150.389 30.2217L150.268 30.2802C149.669 28.9775 149.325 27.5356 149.26 26.0585L152.606 26.1764V26.1773ZM151.055 31.6839L152.002 31.2358L152.194 31.1651C152.456 31.0471 152.727 30.9405 153 30.8462H153.111C153.111 31.0707 153.211 31.2943 153.273 31.5066C153.332 31.7188 153.273 31.6132 153.273 31.6717C153.273 31.7311 153.363 32.0019 153.413 32.1556C153.431 32.233 153.454 32.3075 153.484 32.3792C153.522 32.516 153.565 32.65 153.615 32.7802C153.615 32.8632 153.615 32.9339 153.685 33.0047L153.968 33.3113C153.989 33.3811 154.016 33.4481 154.048 33.5113C154.099 33.649 154.156 33.783 154.219 33.9122L154.281 34.0538L154.542 34.5613V34.6434C154.602 34.75 154.663 34.8679 154.734 34.9736C153.277 34.2831 152.006 33.1468 151.054 31.6839H151.055ZM161.245 34.9622L161.447 34.6085L161.709 34.1019L161.769 33.9481C161.83 33.8179 161.89 33.6887 161.94 33.5585C161.977 33.4792 162.007 33.3962 162.031 33.3113L162.182 32.9453C162.205 32.8651 162.232 32.7868 162.263 32.7094C162.263 32.5802 162.344 32.45 162.394 32.3085C162.445 32.167 162.394 32.167 162.465 32.0849C162.535 32.0028 162.556 31.7783 162.596 31.6132C162.636 31.4481 162.596 31.4953 162.647 31.4358L162.798 30.7754H162.919C163.19 30.8821 163.463 30.9764 163.725 31.0943L163.916 31.1651C164.239 31.3066 164.561 31.4594 164.864 31.6245H164.915C163.974 33.1065 162.705 34.2605 161.246 34.9622H161.245Z" fill="white"/>
<rect opacity="0.5" x="74.9494" y="94.9494" width="48.1012" height="48.1012" rx="3.7977" stroke="#E2E2E2" stroke-width="1.89885"/>
<rect opacity="0.5" x="224.949" y="0.949425" width="48.1012" height="48.1012" rx="2.54344" stroke="#F0F0F0" stroke-width="1.89885"/>
<rect opacity="0.5" x="377.949" y="94.9494" width="48.1012" height="48.1012" rx="3.7977" stroke="#F7F7F7" stroke-width="1.89885"/>
<g clip-path="url(#clip0)">
<path d="M408.291 116.849L410.117 113.956C410.153 113.897 410.169 113.831 410.165 113.764C410.16 113.698 410.134 113.634 410.09 113.581C410.046 113.527 409.986 113.487 409.917 113.464C409.849 113.442 409.774 113.438 409.703 113.454C409.656 113.465 409.612 113.485 409.574 113.513C409.535 113.54 409.503 113.574 409.479 113.613L407.631 116.547C406.149 115.942 404.545 115.629 402.923 115.629C401.301 115.629 399.697 115.942 398.215 116.547L396.323 113.613C396.299 113.574 396.267 113.54 396.228 113.512C396.19 113.485 396.145 113.465 396.098 113.454C396.051 113.442 396.002 113.44 395.953 113.446C395.905 113.453 395.859 113.469 395.817 113.492C395.733 113.538 395.673 113.612 395.648 113.699C395.623 113.786 395.637 113.878 395.685 113.956L397.555 116.849C395.979 117.64 394.64 118.775 393.657 120.153C392.675 121.532 392.079 123.112 391.923 124.752H413.923C413.767 123.112 413.171 121.532 412.189 120.153C411.206 118.775 409.867 117.64 408.291 116.849ZM397.874 121.89C397.688 121.889 397.506 121.837 397.353 121.74C397.2 121.644 397.082 121.507 397.015 121.348C396.948 121.19 396.935 121.016 396.977 120.85C397.019 120.684 397.115 120.534 397.252 120.419C397.389 120.304 397.561 120.229 397.745 120.205C397.929 120.18 398.117 120.207 398.284 120.282C398.45 120.357 398.589 120.477 398.68 120.625C398.772 120.773 398.813 120.943 398.798 121.113C398.786 121.33 398.684 121.536 398.512 121.686C398.34 121.836 398.111 121.92 397.874 121.919V121.889V121.89ZM407.973 121.89C407.79 121.89 407.611 121.84 407.459 121.747C407.307 121.654 407.189 121.522 407.119 121.367C407.049 121.212 407.031 121.042 407.066 120.878C407.102 120.713 407.19 120.562 407.319 120.444C407.448 120.326 407.613 120.245 407.792 120.212C407.971 120.18 408.157 120.196 408.326 120.26C408.495 120.325 408.639 120.433 408.741 120.572C408.842 120.712 408.897 120.875 408.897 121.043C408.899 121.156 408.878 121.269 408.833 121.374C408.787 121.48 408.72 121.576 408.634 121.658C408.548 121.739 408.445 121.804 408.332 121.849C408.218 121.894 408.096 121.918 407.973 121.919V121.89Z" fill="white"/>
</g>
<path fill-rule="evenodd" clip-rule="evenodd" d="M338 38.5C339.157 38.5132 340.306 38.2967 341.379 37.8629C342.452 37.4291 343.429 36.7866 344.252 35.9728C345.075 35.159 345.729 34.1899 346.175 33.1217C346.62 32.0536 346.85 30.9075 346.85 29.75C346.85 24.662 343.625 24.75 341.625 21.325C340.437 18.8734 339.729 16.2174 339.538 13.5C332.612 18.85 329.15 24.267 329.15 29.75C329.15 30.9075 329.38 32.0536 329.825 33.1217C330.271 34.1899 330.925 35.159 331.748 35.9728C332.571 36.7866 333.548 37.4291 334.621 37.8629C335.694 38.2967 336.843 38.5132 338 38.5Z" fill="white"/>
<path d="M105.825 119.787C105.839 120.855 106.163 121.897 106.758 122.784C107.352 123.672 108.192 124.368 109.175 124.787C108.775 126.052 108.194 127.252 107.45 128.35C106.4 129.913 105.325 131.5 103.625 131.5C101.925 131.5 101.413 130.512 99.5 130.512C97.587 130.512 97 131.475 95.4 131.537C93.8 131.6 92.5 129.85 91.5 128.337C89.35 125.225 87.75 119.587 89.913 115.737C90.4276 114.819 91.169 114.049 92.0663 113.5C92.9636 112.951 93.9868 112.641 95.038 112.6C96.65 112.6 98.175 113.687 99.163 113.687C100.15 113.688 102 112.35 104 112.55C104.904 112.583 105.789 112.826 106.583 113.26C107.377 113.694 108.059 114.307 108.575 115.05C107.757 115.549 107.081 116.248 106.608 117.081C106.136 117.914 105.883 118.854 105.875 119.812L105.825 119.788V119.787ZM102.675 110.487C103.148 109.942 103.508 109.31 103.735 108.626C103.963 107.941 104.053 107.219 104 106.5C102.549 106.617 101.203 107.299 100.25 108.4C99.794 108.927 99.4484 109.541 99.2337 110.204C99.0189 110.868 98.9395 111.567 99 112.262C99.7203 112.28 100.435 112.128 101.086 111.82C101.737 111.512 102.307 111.055 102.75 110.487" fill="white"/>
<path d="M233.088 24.9673C233.088 27.4737 235.287 29.8133 238.753 31.1321C238.061 35.0108 238.629 38.1372 240.527 39.3553C242.478 40.6075 245.383 39.7408 248.142 37.0571C250.83 39.6324 253.547 40.6459 255.443 39.4242C257.392 38.1685 257.985 34.8302 257.273 30.8303C260.884 29.5017 262.903 27.5067 262.903 24.9673C262.903 22.5192 260.7 20.4013 257.281 19.091C258.047 14.9258 257.398 11.8754 255.421 10.6069C253.516 9.38392 250.767 10.4498 248.039 13.0924C245.201 10.2876 242.48 9.43126 240.506 10.7033C238.602 11.9297 238.059 15.113 238.753 19.0635C235.404 20.3633 233.088 22.5291 233.088 24.9673Z" fill="#682C90"/>
<path d="M256.557 20.3921C256.275 20.2845 255.991 20.1848 255.704 20.0932C255.752 19.8784 255.796 19.6627 255.836 19.4461C256.481 15.9598 256.059 13.1513 254.619 12.2268C253.237 11.3401 250.978 12.2646 248.697 14.4746C248.472 14.6928 248.252 14.9174 248.038 15.148C247.894 14.9947 247.748 14.8443 247.599 14.697C245.208 12.3337 242.811 11.338 241.372 12.2653C239.992 13.1544 239.583 15.7948 240.164 19.0987C240.222 19.4259 240.287 19.7514 240.36 20.0749C240.021 20.1821 239.693 20.2964 239.38 20.418C236.577 21.5058 234.786 23.2108 234.786 24.9793C234.786 26.8059 236.708 28.638 239.628 29.7487C239.865 29.8384 240.103 29.9215 240.344 29.9979C240.266 30.3464 240.196 30.6973 240.136 31.0501C239.582 34.2966 240.015 36.8744 241.391 37.7581C242.813 38.6705 245.198 37.7327 247.522 35.4722C247.705 35.2935 247.89 35.104 248.074 34.9054C248.307 35.155 248.545 35.3974 248.79 35.6323C251.04 37.7877 253.263 38.6581 254.638 37.772C256.058 36.8569 256.52 34.0877 255.92 30.7184C255.875 30.461 255.821 30.1982 255.762 29.9306C255.929 29.8755 256.094 29.8187 256.254 29.7594C259.289 28.64 261.264 26.8303 261.264 24.9793C261.264 23.2044 259.416 21.4879 256.557 20.3921Z" fill="white"/>
<path d="M255.898 28.5646C255.753 28.618 255.605 28.6695 255.453 28.7195C255.118 27.5386 254.666 26.2829 254.113 24.9858C254.641 23.7192 255.076 22.4797 255.401 21.3065C255.672 21.3939 255.935 21.4858 256.188 21.583C258.639 22.5217 260.133 23.9099 260.133 24.9795C260.133 26.1189 258.519 27.598 255.898 28.5646ZM254.811 30.9632C255.076 32.453 255.114 33.8 254.938 34.853C254.78 35.7992 254.463 36.43 254.071 36.6826C253.237 37.2203 251.452 36.5214 249.528 34.6781C249.307 34.4668 249.085 34.2412 248.862 34.0025C249.608 33.0941 250.354 32.0381 251.081 30.8655C252.361 30.7391 253.571 30.5324 254.667 30.2502C254.721 30.4929 254.769 30.7306 254.811 30.9632ZM243.813 36.5898C242.998 36.9102 242.349 36.9194 241.956 36.6675C241.121 36.1314 240.774 34.0614 241.247 31.2851C241.304 30.957 241.368 30.6307 241.441 30.3066C242.525 30.5736 243.726 30.7657 245.009 30.8816C245.741 32.029 246.509 33.0837 247.282 34.0073C247.117 34.1842 246.949 34.3566 246.777 34.5243C245.75 35.524 244.72 36.233 243.813 36.5898ZM239.994 28.5576C238.703 28.0664 237.636 27.428 236.906 26.7315C236.249 26.1054 235.917 25.4839 235.917 24.9795C235.917 23.9064 237.355 22.5375 239.752 21.6071C240.053 21.4909 240.357 21.3844 240.664 21.2879C240.995 22.4876 241.43 23.7418 241.954 25.0102C241.423 26.2974 240.982 27.5716 240.647 28.7853C240.428 28.7154 240.21 28.6395 239.994 28.5576ZM241.274 18.8572C240.776 16.0263 241.107 13.891 241.939 13.3552C242.824 12.7844 244.783 13.5983 246.848 15.6387C246.98 15.7691 247.112 15.9057 247.245 16.0469C246.476 16.9664 245.716 18.0131 244.989 19.1539C243.744 19.2824 242.552 19.4887 241.456 19.7651C241.389 19.4642 241.328 19.1615 241.274 18.8572ZM252.696 21.9963C252.437 21.4987 252.168 21.0072 251.89 20.5224C252.735 20.6411 253.545 20.7989 254.305 20.9921C254.077 21.8062 253.792 22.6574 253.457 23.53C253.213 23.0132 252.959 22.5019 252.696 21.9963ZM248.038 16.9467C248.56 17.5758 249.082 18.2783 249.596 19.0404C248.554 18.9856 247.509 18.9853 246.467 19.0396C246.981 18.2846 247.508 17.5831 248.038 16.9467ZM243.35 22.0049C243.091 22.5064 242.841 23.0146 242.603 23.5291C242.274 22.6595 241.992 21.8045 241.762 20.9788C242.517 20.7906 243.323 20.6368 244.162 20.5201C243.881 21.0079 243.61 21.503 243.35 22.0049ZM244.186 29.5288C243.319 29.4211 242.501 29.2751 241.746 29.0921C241.98 28.2519 242.268 27.3785 242.604 26.4902C242.844 27.005 243.094 27.5135 243.355 28.0152C243.621 28.5271 243.898 29.0317 244.186 29.5288ZM248.069 33.1013C247.533 32.4573 246.998 31.7452 246.476 30.9791C246.983 31.0013 247.5 31.0125 248.025 31.0125C248.565 31.0125 249.099 30.9991 249.624 30.973C249.108 31.753 248.587 32.4662 248.069 33.1013ZM253.468 26.4449C253.822 27.3429 254.12 28.2116 254.357 29.0376C253.589 29.2326 252.761 29.3896 251.887 29.5062C252.167 29.0124 252.438 28.5124 252.7 28.0065C252.967 27.4924 253.223 26.9717 253.468 26.4449ZM251.72 27.3776C251.319 28.1531 250.896 28.9139 250.45 29.6589C249.664 29.7213 248.853 29.7536 248.025 29.7536C247.201 29.7536 246.4 29.725 245.628 29.6693C245.171 28.9261 244.739 28.164 244.334 27.3845C243.93 26.6091 243.554 25.817 243.204 25.0098C243.553 24.2023 243.928 23.4098 244.331 22.6338C244.732 21.8576 245.161 21.099 245.614 20.359C246.402 20.2927 247.209 20.258 248.025 20.258C248.845 20.258 249.654 20.293 250.441 20.3598C250.89 21.0986 251.315 21.8549 251.717 22.6271C252.12 23.4014 252.501 24.1901 252.858 24.9919C252.504 25.8019 252.125 26.5976 251.72 27.3776ZM254.054 13.3177C254.94 13.8869 255.285 16.1822 254.728 19.1923C254.692 19.3883 254.652 19.5837 254.609 19.7782C253.511 19.496 252.318 19.286 251.069 19.1556C250.341 18.0024 249.587 16.9539 248.831 16.0463C249.029 15.8335 249.232 15.6262 249.439 15.4246C251.394 13.531 253.221 12.7833 254.054 13.3177Z" fill="#682C90"/>
<path d="M248.025 22.3477C249.331 22.3477 250.39 23.526 250.39 24.9794C250.39 26.433 249.331 27.6113 248.025 27.6113C246.72 27.6113 245.661 26.433 245.661 24.9794C245.661 23.526 246.72 22.3477 248.025 22.3477Z" fill="white"/>
<defs>
<linearGradient id="paint0_linear" x1="235.261" y1="187.563" x2="222.861" y2="435.901" gradientUnits="userSpaceOnUse">
<stop stop-color="#FF9F81"/>
<stop offset="1" stop-color="#F53838"/>
</linearGradient>
<linearGradient id="paint1_linear" x1="235.127" y1="120.344" x2="232.91" y2="230.644" gradientUnits="userSpaceOnUse">
<stop stop-color="#FFEFE0"/>
<stop offset="1" stop-color="#FFBE99"/>
</linearGradient>
<linearGradient id="paint2_linear" x1="236.808" y1="108.928" x2="236.808" y2="205.383" gradientUnits="userSpaceOnUse">
<stop stop-color="#FFEFE0"/>
<stop offset="1" stop-color="#FFBE99"/>
</linearGradient>
<linearGradient id="paint3_linear" x1="215.622" y1="309.635" x2="215.622" y2="393.501" gradientUnits="userSpaceOnUse">
<stop offset="0.0677966" stop-color="#FFEFE0"/>
<stop offset="1" stop-color="#FFBE99"/>
</linearGradient>
<linearGradient id="paint4_linear" x1="332.507" y1="186.546" x2="413.893" y2="281.794" gradientUnits="userSpaceOnUse">
<stop stop-color="#FFEFE0"/>
<stop offset="1" stop-color="#FFBE99"/>
</linearGradient>
<linearGradient id="paint5_linear" x1="435.21" y1="237.948" x2="389.565" y2="427.293" gradientUnits="userSpaceOnUse">
<stop offset="0.0171777" stop-color="white"/>
<stop offset="1" stop-color="#D7D7D7"/>
</linearGradient>
<linearGradient id="paint6_linear" x1="-22.6908" y1="342.388" x2="69.622" y2="225.633" gradientUnits="userSpaceOnUse">
<stop stop-color="#ECECEC"/>
<stop offset="1" stop-color="#F5F5F5" stop-opacity="0"/>
</linearGradient>
<linearGradient id="paint7_linear" x1="88.5126" y1="358.422" x2="56.6766" y2="359.121" gradientUnits="userSpaceOnUse">
<stop stop-color="white"/>
<stop offset="1" stop-color="#CCCCCC"/>
</linearGradient>
<linearGradient id="paint8_linear" x1="35.1088" y1="325.164" x2="35.1088" y2="420.388" gradientUnits="userSpaceOnUse">
<stop stop-color="white"/>
<stop offset="1" stop-color="#CCCCCC"/>
</linearGradient>
<linearGradient id="paint9_linear" x1="256.982" y1="355.824" x2="256.87" y2="361.092" gradientUnits="userSpaceOnUse">
<stop stop-color="#7F67CE"/>
<stop offset="1" stop-color="#30235B"/>
</linearGradient>
<clipPath id="clip0">
<rect width="23.0769" height="24.1935" fill="white" transform="translate(390 107)"/>
</clipPath>
</defs>
</svg>
